<svg width="512" height="544" viewBox="0 0 512 544" fill="none" xmlns="http://www.w3.org/2000/svg">
<g id="kvitochka">
<g id="Group">
<path id="Vector" d="M367.213 48.6676C349.719 39.6701 322.484 53.6343 297.667 83.3397C283.599 47.279 262.226 25.3708 242.779 28.3308C214.093 32.8502 185.362 92.6082 208.486 152.656C229.508 207.246 266.572 261.388 269.488 261.864C272.405 262.341 330.615 217.632 361.112 177.601C399.397 126.566 392.967 62.0844 367.213 48.6676Z" fill="#FFE7E7"/>
</g>
<g id="Group_2">
<path id="Vector_2" d="M167.534 494.831C185.027 503.828 212.262 489.864 237.079 460.159C251.148 496.219 272.52 518.128 291.968 515.168C320.654 510.648 349.384 450.89 326.261 390.842C305.239 336.253 268.175 282.111 265.258 281.634C262.342 281.158 204.131 325.867 173.634 365.898C135.187 417.929 141.779 481.414 167.534 494.831Z" fill="#FFE7E7"/>
</g>
<g id="Group_3">
<path id="Vector_3" d="M504.628 246.071C507.366 265.957 485.796 288.009 450.459 302.695C479.282 327.867 492.709 355.638 483.782 373.618C470.473 400.089 406.134 409.012 358.04 367.39C314.319 329.552 276.119 276.248 276.608 273.259C277.097 270.269 336.926 227.871 383.608 210.947C443.906 190.109 500.438 216.741 504.628 246.071Z" fill="#FFE7E7"/>
</g>
<g id="Group_4">
<path id="Vector_4" d="M28.9829 298.265C26.2443 278.379 47.8142 256.327 83.1521 241.641C54.3284 216.469 40.9013 188.698 49.8284 170.718C63.1376 144.248 127.477 135.324 175.57 176.946C219.292 214.784 257.491 268.088 257.003 271.077C256.514 274.067 196.685 316.465 150.002 333.39C90.6766 354.386 33.1723 327.595 28.9829 298.265Z" fill="#FFE7E7"/>
</g>
</g>
</svg>
