<svg width="348" height="130" viewBox="0 0 348 130" fill="none" xmlns="http://www.w3.org/2000/svg">
<g id="&#208;&#187;&#208;&#190;&#208;&#179;&#208;&#190;">
<g id="&#209;&#128;&#208;&#190;&#208;&#183;&#208;&#188;&#208;&#176;&#208;&#185;">
<g id="Group">
<path id="Vector" d="M102.492 18.5159C102.108 18.5159 99.033 21.4049 95.4457 25.0818C91.8585 21.4049 88.7837 18.5159 88.3994 18.5159C88.2713 18.6472 91.0898 21.9302 94.8052 25.7384C91.0898 29.5467 88.2713 32.8297 88.3994 32.961C88.7837 32.961 91.8585 30.072 95.4457 26.395C99.033 30.072 102.108 32.961 102.492 32.961C102.62 32.8297 99.8016 29.5467 96.0863 25.7384C99.9298 21.7989 102.748 18.6472 102.492 18.5159C102.62 18.5159 102.62 18.5159 102.492 18.5159Z" fill="#1F4214"/>
</g>
<g id="Group_2">
<path id="Vector_2" d="M88.5275 55.942C88.2713 56.2047 91.0898 59.3563 94.8052 63.1646C91.0898 66.9728 88.2713 70.1245 88.3994 70.3871C88.7837 70.3871 91.8585 67.6294 95.4457 63.9525C99.033 67.6294 102.108 70.5185 102.492 70.5185C102.62 70.3871 99.9298 67.1042 96.2144 63.2959C99.9298 59.4876 102.748 56.336 102.62 56.0733C102.236 56.0733 99.1611 58.831 95.5738 62.508C91.8585 58.831 88.7837 55.942 88.5275 55.942Z" fill="#1F4214"/>
</g>
<g id="Group_3">
<path id="Vector_3" d="M65.8512 18.5159C65.4669 18.5159 62.3921 21.4049 58.8049 25.0818C55.2176 21.4049 52.1429 18.5159 51.7585 18.5159C51.6304 18.6472 54.4489 21.9302 58.1643 25.7384C54.4489 29.5467 51.6304 32.8297 51.7585 32.961C52.1429 32.961 55.2176 30.072 58.8049 26.395C62.3921 30.072 65.4669 32.961 65.8512 32.961C65.9793 32.8297 63.1608 29.5467 59.4454 25.7384C63.2889 21.7989 66.1074 18.6472 65.8512 18.5159Z" fill="#1F4214"/>
</g>
<g id="Group_4">
<path id="Vector_4" d="M65.8512 55.942C65.4669 55.942 62.5202 58.831 58.8049 62.508C55.2176 58.831 52.1429 56.0733 51.7585 56.0733C51.6304 56.2047 54.4489 59.4876 58.1643 63.2959C54.4489 67.1042 51.6304 70.3871 51.8866 70.5185C52.271 70.5185 55.2176 67.6294 58.933 63.9525C62.5202 67.6294 65.595 70.3871 65.9793 70.3871C66.1074 70.2558 63.2889 66.9728 59.5736 63.1646C63.2889 59.3563 66.1074 56.2047 65.8512 55.942Z" fill="#1F4214"/>
</g>
<path id="Vector_5" d="M0 0H13.8715C21.5778 0 26.8439 0.261894 29.5411 0.916628C33.6512 1.83326 36.9906 3.9284 39.6878 7.07113C42.2566 10.2139 43.541 14.1423 43.541 18.8563C43.541 22.7847 42.6419 26.1894 40.8438 29.0702C39.0456 31.951 36.4768 34.1771 33.1374 35.7485C29.798 37.1889 25.3026 37.9746 19.3944 38.1055L44.4401 71.1041H35.9631L10.9174 38.1055H6.93573V71.1041H0V0ZM6.93573 6.94018V31.0344L18.8806 31.1653C23.5044 31.1653 26.9723 30.7725 29.1558 29.8559C31.3392 28.9392 33.1374 27.4988 34.4218 25.5346C35.7062 23.5704 36.3484 21.3443 36.3484 18.8563C36.3484 16.4993 35.7062 14.2732 34.4218 12.309C33.1374 10.3448 31.4677 8.90438 29.4127 8.1187C27.3576 7.33302 23.8898 6.80923 19.1375 6.80923H6.93573V6.94018Z" fill="#0C0B0B"/>
<path id="Vector_6" d="M110.061 19.8271H146.994L118.485 64.6831H146.087V70.4205H107.34L135.849 25.5645H110.061V19.8271Z" fill="#0C0B0B"/>
<path id="Vector_7" d="M153.831 19.7758H160.244V28.5938C162.425 25.3035 164.734 22.9345 167.171 21.4868C170.377 19.5126 173.841 18.4597 177.432 18.4597C179.869 18.4597 182.178 18.9862 184.358 19.9074C186.539 20.8287 188.335 22.1448 189.617 23.7242C191.028 25.3035 192.183 27.6725 193.209 30.6995C195.389 26.7512 197.955 23.5925 201.161 21.6184C204.368 19.5126 207.831 18.4597 211.423 18.4597C214.886 18.4597 217.964 19.381 220.529 21.0919C223.095 22.8029 225.147 25.3035 226.43 28.5938C227.712 31.7524 228.354 36.622 228.354 42.9394V70.8409H221.812V43.071C221.812 37.5433 221.427 33.8582 220.658 31.7524C219.888 29.6467 218.605 28.0673 216.81 26.7512C215.014 25.4351 212.833 24.9087 210.268 24.9087C207.19 24.9087 204.368 25.8299 201.803 27.6725C199.237 29.515 197.313 32.0157 196.159 35.1743C195.004 38.333 194.363 43.5974 194.363 50.836V70.8409H187.95V44.7819C187.95 38.5962 187.565 34.3846 186.795 32.2789C186.026 30.0415 184.743 28.3305 182.819 27.0144C180.895 25.6983 178.715 25.0403 176.149 25.0403C173.199 25.0403 170.377 25.9615 167.812 27.8041C165.247 29.6467 163.323 32.1473 162.04 35.1743C160.757 38.2014 160.244 43.071 160.244 49.3883V71.1041H153.831V19.7758Z" fill="#0C0B0B"/>
<path id="Vector_8" d="M291.253 20.0244V70.6143H285.034V61.8784C282.369 65.1381 279.45 67.7458 276.023 69.3105C272.596 70.8751 269.042 71.7878 265.234 71.7878C258.253 71.7878 252.288 69.1801 247.338 63.9646C242.388 58.7492 239.976 52.4906 239.976 45.0586C239.976 37.7569 242.515 31.4984 247.465 26.2829C252.415 21.0674 258.507 18.4597 265.488 18.4597C269.55 18.4597 273.23 19.3724 276.53 21.0674C279.83 22.8929 282.623 25.5006 285.161 29.021V20.0244H291.253ZM265.869 24.979C262.315 24.979 259.142 25.8917 256.096 27.7172C253.05 29.5426 250.765 32.0199 248.988 35.2796C247.211 38.5392 246.323 41.9293 246.323 45.4497C246.323 48.9702 247.211 52.3602 248.988 55.6199C250.765 58.8795 253.176 61.3569 256.223 63.1823C259.269 65.0077 262.442 65.9204 265.869 65.9204C269.296 65.9204 272.596 65.0077 275.769 63.1823C278.815 61.3569 281.227 59.0099 283.003 55.8807C284.653 52.7514 285.542 49.3613 285.542 45.4497C285.542 39.5823 283.638 34.758 279.957 30.7161C276.023 27.0652 271.326 24.979 265.869 24.979Z" fill="#0C0B0B"/>
<path id="Vector_9" d="M300.141 19.8271H307.015L324.265 59.1692L341.126 19.8271H348L317.91 89.5639H311.166L320.893 67.0639L300.141 19.8271Z" fill="#0C0B0B"/>
<g id="kvitochka">
<g id="Group_5">
<path id="Vector_10" d="M85.3247 13.7886C82.8905 13.0006 79.6876 15.3644 77.1253 19.6979C74.563 15.3644 71.3601 13.0006 68.9259 13.7886C65.3387 14.9704 62.9045 23.2435 67.1323 30.4661C70.9758 37.0321 76.8691 43.2041 77.2534 43.2041C77.6378 43.2041 84.1716 36.2441 87.2464 30.4661C91.0898 23.1122 88.9119 14.9704 85.3247 13.7886Z" fill="#9E0707"/>
</g>
<g id="Group_6">
<path id="Vector_11" d="M69.0541 75.246C71.4882 76.0339 74.6911 73.6701 77.2534 69.3366C79.8157 73.6701 83.0186 76.0339 85.4528 75.246C89.04 74.0641 91.4742 65.791 87.2464 58.5684C83.4029 52.0024 77.5096 45.8304 77.1253 45.8304C76.741 45.8304 70.2071 52.7904 67.1323 58.5684C63.2889 66.0536 65.4668 74.0641 69.0541 75.246Z" fill="#9E0707"/>
</g>
<g id="Group_7">
<path id="Vector_12" d="M107.104 36.2442C107.873 38.7392 105.567 42.0222 101.339 44.6486C105.567 47.275 107.873 50.558 107.104 53.053C105.951 56.73 97.8799 59.225 90.8335 54.8915C84.4278 50.9519 78.4064 44.9113 78.4064 44.5173C78.4064 44.1233 85.1965 37.4261 90.8335 34.2744C98.1361 30.3348 105.951 32.5672 107.104 36.2442Z" fill="#9E0707"/>
</g>
<g id="Group_8">
<path id="Vector_13" d="M47.1463 52.9217C46.3777 50.4266 48.6837 47.1437 52.9115 44.5173C48.6837 41.8909 46.3777 38.6079 47.1463 36.1128C48.2994 32.4359 56.3706 29.9408 63.417 34.2744C69.8227 38.2139 75.8441 44.2546 75.8441 44.6486C75.8441 45.0426 69.054 51.7398 63.417 54.8915C56.2425 58.8311 48.2994 56.5986 47.1463 52.9217Z" fill="#9E0707"/>
</g>
</g>
</g>
<g id="&#208;&#178;&#208;&#184;&#209;&#136;&#208;&#184;&#209;&#130;&#208;&#190; &#209;&#129;&#208;&#181;&#209;&#128;&#209;&#134;&#208;&#181;&#208;&#188;">
<g id="Group_9">
<path id="Vector_14" d="M0 94.8124H5.76518C8.07125 94.8124 9.86486 95.075 11.146 95.6003C12.4272 96.1256 13.324 97.0448 14.0927 98.2267C14.8614 99.4086 15.1176 100.722 15.1176 102.166C15.1176 103.479 14.8614 104.661 14.2208 105.843C13.5802 106.894 12.6834 107.813 11.4022 108.47C12.9396 108.995 14.0927 109.651 14.8614 110.308C15.63 110.965 16.2706 111.884 16.7831 112.934C17.2955 113.985 17.4237 115.036 17.4237 116.217C17.4237 118.581 16.5268 120.682 14.8614 122.258C13.1959 123.834 10.8898 124.753 8.07125 124.753H0V94.8124ZM2.81853 97.7014V107.288H4.48403C6.53387 107.288 8.07125 107.156 8.96806 106.762C9.86486 106.368 10.6336 105.712 11.2741 104.924C11.9147 104.136 12.1709 103.217 12.1709 102.166C12.1709 100.853 11.6585 99.6712 10.7617 98.8833C9.86486 98.0954 8.32748 97.7014 6.27764 97.7014H2.81853ZM2.81853 110.308V121.733H6.40575C8.58371 121.733 10.1211 121.47 11.146 121.076C12.1709 120.682 12.9396 120.026 13.5802 119.106C14.2208 118.187 14.477 117.268 14.477 116.217C14.477 114.904 14.0927 113.722 13.1959 112.672C12.299 111.621 11.146 110.965 9.73675 110.571C8.71183 110.439 6.91821 110.308 4.48403 110.308H2.81853Z" fill="#9E0707"/>
</g>
<g id="Group_10">
<path id="Vector_15" d="M46.2495 124.753H43.1747V101.772L23.9575 124.753H23.3169V94.8124H26.2635V118.187L45.6089 94.8124H46.2495V124.753Z" fill="#9E0707"/>
</g>
<g id="Group_11">
<path id="Vector_16" d="M56.2425 121.864H68.7978V94.8124H71.7444V121.864H84.4278V94.8124H87.3744V124.753H53.2958V94.8124H56.2425V121.864Z" fill="#9E0707"/>
</g>
<g id="Group_12">
<path id="Vector_17" d="M117.353 124.753H114.279V101.772L95.0614 124.753H94.4208V94.8124H97.3674V118.187L116.713 94.8124H117.353V124.753Z" fill="#9E0707"/>
</g>
<g id="Group_13">
<path id="Vector_18" d="M121.581 97.7014V94.8124H137.596V97.7014H131.062V124.753H128.115V97.7014H121.581Z" fill="#9E0707"/>
</g>
<g id="Group_14">
<path id="Vector_19" d="M155.66 94.0245C160.144 94.0245 163.731 95.6004 166.806 98.6207C169.752 101.641 171.29 105.318 171.29 109.783C171.29 114.116 169.752 117.925 166.806 120.945C163.859 123.965 160.144 125.541 155.916 125.541C151.56 125.541 147.973 123.965 144.898 120.945C141.823 117.925 140.414 114.248 140.414 109.914C140.414 107.025 141.055 104.399 142.464 101.904C143.873 99.4086 145.667 97.5702 147.973 96.1256C150.407 94.6811 152.969 94.0245 155.66 94.0245ZM155.788 96.9136C153.61 96.9136 151.56 97.4388 149.638 98.6207C147.717 99.8026 146.179 101.378 145.154 103.348C144.129 105.318 143.489 107.419 143.489 109.914C143.489 113.46 144.642 116.48 147.076 118.975C149.51 121.47 152.329 122.652 155.788 122.652C158.094 122.652 160.144 122.127 162.066 120.945C163.987 119.763 165.525 118.319 166.55 116.349C167.574 114.379 168.215 112.278 168.215 109.783C168.215 107.419 167.703 105.318 166.55 103.348C165.396 101.378 163.987 99.9339 161.937 98.752C160.144 97.4388 157.966 96.9136 155.788 96.9136Z" fill="#9E0707"/>
</g>
<g id="Group_15">
<path id="Vector_20" d="M215.618 100.328L213.312 102.166C212.03 100.459 210.493 99.146 208.699 98.3581C206.906 97.4389 204.984 97.0449 202.806 97.0449C200.5 97.0449 198.322 97.5702 196.272 98.7521C194.222 99.934 192.685 101.378 191.66 103.348C190.507 105.318 189.995 107.419 189.995 109.914C189.995 113.591 191.276 116.611 193.71 119.107C196.144 121.602 199.219 122.784 202.934 122.784C207.034 122.784 210.493 121.076 213.184 117.793L215.49 119.632C214.08 121.47 212.159 123.046 209.981 124.097C207.803 125.147 205.368 125.673 202.678 125.673C197.553 125.673 193.582 123.965 190.635 120.42C188.201 117.531 186.92 113.854 186.92 109.783C186.92 105.449 188.457 101.772 191.404 98.7521C194.351 95.7317 198.194 94.2872 202.678 94.2872C205.368 94.2872 207.931 94.8125 210.109 95.9944C212.287 97.1762 214.208 98.3581 215.618 100.328Z" fill="#9E0707"/>
</g>
<g id="Group_16">
<path id="Vector_21" d="M221.511 94.8124H238.294V97.7014H224.458V107.025H238.166V109.914H224.458V121.733H238.166V124.753H221.511V94.8124Z" fill="#9E0707"/>
</g>
<g id="Group_17">
<path id="Vector_22" d="M243.162 94.8124H248.928C252.259 94.8124 254.565 94.9437 255.718 95.2063C257.383 95.6003 258.792 96.5195 259.817 97.8327C260.842 99.1459 261.355 100.853 261.355 102.823C261.355 104.793 260.842 106.5 259.817 107.813C258.792 109.126 257.383 110.045 255.59 110.439C254.308 110.702 251.746 110.965 248.159 110.965H246.109V124.753H243.162V94.8124ZM246.109 97.7014V107.813H251.105C253.155 107.813 254.565 107.682 255.461 107.288C256.358 106.894 257.127 106.368 257.639 105.449C258.152 104.53 258.408 103.742 258.408 102.692C258.408 101.641 258.152 100.722 257.639 99.9338C257.127 99.1459 256.358 98.4893 255.59 98.0954C254.693 97.7014 253.283 97.5701 251.362 97.5701H246.109V97.7014Z" fill="#9E0707"/>
</g>
<g id="Group_18">
<path id="Vector_23" d="M287.234 124.753H265.583V94.8124H268.529V121.995H282.109V94.8124H285.056V121.995H290.053V129.218H287.362V124.753H287.234Z" fill="#9E0707"/>
</g>
<g id="Group_19">
<path id="Vector_24" d="M294.409 94.8124H311.192V97.7014H297.227V107.025H310.935V109.914H297.227V121.733H310.935V124.753H294.28V94.8124H294.409Z" fill="#9E0707"/>
</g>
<g id="Group_20">
<path id="Vector_25" d="M314.779 124.753L319.006 94.8124H319.519L331.434 119.369L343.22 94.8124H343.733L347.96 124.753H345.142L342.067 103.217L331.69 124.753H330.921L320.416 103.217L317.597 124.753H314.779Z" fill="#9E0707"/>
</g>
</g>
</g>
</svg>
